# xmcd
#
# Track frame offsets:
# 182
# 11152
# 22480
# 34190
# 43512
# 54380
# 62825
# 74375
# 83825
# 92640
# 103427
# 113825
# 124040
# 138117
# 148577
# 161030
# 171150
# 186767
# 197275
# 206487
# 215715
# 224725
# 235645
# 244007
# 254710
# 263942
# 275182
# 284767
# 293597
# 302037
# 312030
# 322665
# 333112
#
# Disc length: 4531 seconds
#
#
# Revision: 0
# Processed by: cddbd v1.5.2PL0 Copyright (c) Steve Scherf et al.
# Submitted via: FreeRIP 2.945 
#
DISCID=fe11b121
DTITLE=The Everly Brothers - Heartaches and Harmonies CD 2
DYEAR=1994
DGENRE=Rock and Roll
TTITLE0=Cathy's Clown 4 apr 1960
TTITLE1=Always it's you 4 apr 1960
TTITLE2=So sad (To watch good love go bad) '60
TTITLE3=That's what you do to me may 1960
TTITLE4=Sleepless nightsmay 1960
TTITLE5=Carol Jane may 1960
TTITLE6=Lucille 20 aug 1960
TTITLE7=Made to love oct 1960
TTITLE8=Stick with me baby 12 may 1961
TTITLE9=Love Hurts oct 1960
TTITLE10=So how come (No one loves me) '60
TTITLE11=Donna, Donna oct 1960
TTITLE12=Ebony Eyes 13 jan 1961
TTITLE13=Walk right back 13 jan 1961
TTITLE14=Why not oct 1977
TTITLE15=Temptation 12 may1961
TTITLE16=Don't blame me aug 1961
TTITLE17=Muskrat (singel) 2 sept 1961
TTITLE18=Crying in the rain 22 dec 1961
TTITLE19=I'm not angry 22 dec 1961
TTITLE20=Step it up and go jan 1962
TTITLE21=That's old fashioned 18 apr 1962
TTITLE22=How can i meet her? 18 apr 1962
TTITLE23=Nancy's minuet oct 1977
TTITLE24=Nice guy oct 1977
TTITLE25=Don't ask me to be friends26 sept 1962
TTITLE26=No one can make my sunshine smile '62
TTITLE27=So it always will be20 feb 1963
TTITLE28=I'm afraid 1 may 1963
TTITLE29=The girl sang the blues 18 sept 1963
TTITLE30=Love her 18 sept 1963
TTITLE31=The ferris wheel 23 may 1964
TTITLE32=Things go better with coke unknown
EXTD=4 CD Box   
EXTT0=
EXTT1=
EXTT2=
EXTT3=
EXTT4=
EXTT5=
EXTT6=
EXTT7=
EXTT8=
EXTT9=
EXTT10=
EXTT11=
EXTT12=
EXTT13=
EXTT14=
EXTT15=
EXTT16=
EXTT17=
EXTT18=
EXTT19=
EXTT20=
EXTT21=(That's the way love should be)
EXTT22=
EXTT23=Alternate version
EXTT24=Alternate version
EXTT25=
EXTT26=
EXTT27=
EXTT28=
EXTT29=
EXTT30=
EXTT31=
EXTT32=
PLAYORDER=
